<svg width="53" height="34" viewBox="0 0 53 34" fill="none" xmlns="http://www.w3.org/2000/svg">
<g clip-path="url(#clip0_1_55)">
<path d="M15.2735 2.05761C15.3211 4.55275 15.3211 7.0479 15.2735 9.54304C15.2735 9.87314 15.3401 10.0576 15.6444 10.2129C15.9773 10.3877 16.4908 10.3974 16.8522 10.3392C17.3277 10.2712 17.8318 10.1353 18.2407 9.85372C18.488 9.68867 18.9349 9.39741 18.9349 9.05761C18.992 6.3877 18.992 3.70809 18.9349 1.03819C18.9349 0.746928 18.4119 0.562462 18.2217 0.523627C17.7937 0.426539 17.2611 0.484792 16.8522 0.601297C16.177 0.80518 15.245 1.20324 15.264 2.03819L15.2735 2.05761Z" fill="#FFB154"/>
<path d="M26.0573 1.30187L25.9527 8.64168C25.9527 8.97177 26.0193 9.15624 26.3236 9.31158C26.6564 9.48634 27.17 9.49605 27.5314 9.43779C28.0069 9.36983 28.5109 9.23391 28.9199 8.95236C29.1576 8.78731 29.6141 8.49605 29.6141 8.15624L29.7187 0.816435C29.7187 0.486338 29.6521 0.301872 29.3478 0.146532C29.015 -0.0282249 28.5014 -0.0379336 28.14 0.0203188C27.6645 0.08828 27.1605 0.224202 26.7515 0.505756C26.5138 0.670804 26.0573 0.962066 26.0573 1.30187Z" fill="#FFB154"/>
<path d="M0.17149 23.9714C5.19284 29.8452 12.4681 33.117 19.9906 33.8549C27.5131 34.5928 35.8535 32.3209 42.5677 28.1656C46.4193 25.7772 49.8334 22.7578 52.8101 19.3112C53.4568 18.5539 52.2585 18.1267 51.7164 18.1073C50.7369 18.0588 49.7098 18.4763 49.0631 19.2238C44.5838 24.4277 38.7161 28.6219 32.1541 30.5442C25.5921 32.4665 18.973 31.952 12.9246 29.2044C9.43437 27.6219 6.34357 25.3306 3.82338 22.3986C2.92943 21.3598 -0.846095 22.7966 0.16198 23.9714H0.17149Z" fill="#FFB154"/>
</g>
<defs>
<clipPath id="clip0_1_55">
<rect width="53" height="34" fill="white"/>
</clipPath>
</defs>
</svg>
