<svg width="72" height="72" viewBox="0 0 72 72" fill="none" xmlns="http://www.w3.org/2000/svg">
<mask id="mask0_12_147" style="mask-type:luminance" maskUnits="userSpaceOnUse" x="0" y="0" width="72" height="72">
<path d="M0 0H72V72H0V0Z" fill="white"/>
</mask>
<g mask="url(#mask0_12_147)">
<path d="M1.05481 64.125V69.5391C1.05481 70.3157 1.68439 70.9453 2.46106 70.9453H33.3111C33.9275 70.1338 34.9024 69.6094 36.0001 69.6094C37.0978 69.6094 38.0728 70.1338 38.6892 70.9453H69.5392C70.3159 70.9453 70.9454 70.3157 70.9454 69.5391V25.4519C70.9454 24.6753 70.3159 24.0456 69.5392 24.0456H67.1221" fill="#FEA439"/>
<path d="M1.05481 64.125V69.5391C1.05481 70.3157 1.68439 70.9453 2.46106 70.9453H33.3111C33.9275 70.1338 34.9024 69.6094 36.0001 69.6094C37.0978 69.6094 38.0728 70.1338 38.6892 70.9453H69.5392C70.3159 70.9453 70.9454 70.3157 70.9454 69.5391V25.4519C70.9454 24.6753 70.3159 24.0456 69.5392 24.0456H67.1221" stroke="black" stroke-width="1.2" stroke-miterlimit="10" stroke-linecap="round" stroke-linejoin="round"/>
<path d="M5.64581 24.0454H2.46094C1.68427 24.0454 1.05469 24.6751 1.05469 25.4516V57.7031" fill="#FEA439"/>
<path d="M5.64581 24.0454H2.46094C1.68427 24.0454 1.05469 24.6751 1.05469 25.4516V57.7031" stroke="black" stroke-width="1.2" stroke-miterlimit="10" stroke-linecap="round" stroke-linejoin="round"/>
<path d="M66.3545 30.6561V66.5742H5.64612V30.6561" fill="#FEA439"/>
<path d="M66.3545 30.6561V66.5742H5.64612V30.6561" stroke="black" stroke-width="1.2" stroke-miterlimit="10" stroke-linecap="round" stroke-linejoin="round"/>
<path d="M36.0003 66.1172C36.0003 66.1172 24.5602 56.6507 5.64612 63.3047V22.7387C5.64612 22.7387 8.37931 21.4538 12.6772 20.5159" fill="#FEA439"/>
<path d="M36.0003 66.1172C36.0003 66.1172 24.5602 56.6507 5.64612 63.3047V22.7387C5.64612 22.7387 8.37931 21.4538 12.6772 20.5159" stroke="black" stroke-width="1.2" stroke-miterlimit="10" stroke-linecap="round" stroke-linejoin="round"/>
<path d="M19.7083 7.47951C17.5971 6.49837 15.2577 5.68963 12.6769 5.14893V47.8359C29.4116 51.342 35.9999 66.1172 35.9999 66.1172" fill="#FEA439"/>
<path d="M19.7083 7.47951C17.5971 6.49837 15.2577 5.68963 12.6769 5.14893V47.8359C29.4116 51.342 35.9999 66.1172 35.9999 66.1172" stroke="black" stroke-width="1.2" stroke-miterlimit="10" stroke-linecap="round" stroke-linejoin="round"/>
<path d="M36.001 23.4302C36.001 23.4302 36.4428 4.56056 19.7082 1.0545V43.7416C36.4428 47.2476 36.001 66.1172 36.001 66.1172V23.4302Z" fill="#FEA439" stroke="black" stroke-width="1.2" stroke-miterlimit="10" stroke-linecap="round" stroke-linejoin="round"/>
<path d="M36 66.1172C36 66.1172 47.4401 56.6507 66.3542 63.3047V22.7387C66.3542 22.7387 64.7782 21.9979 62.1378 21.2305" fill="#FEA439"/>
<path d="M36 66.1172C36 66.1172 47.4401 56.6507 66.3542 63.3047V22.7387C66.3542 22.7387 64.7782 21.9979 62.1378 21.2305" stroke="black" stroke-width="1.2" stroke-miterlimit="10" stroke-linecap="round" stroke-linejoin="round"/>
<path d="M62.1379 31.9217V56.2734C45.1886 56.2734 36.0023 66.1172 36.0023 66.1172V23.4302C36.0023 23.4302 45.1886 13.5864 62.1379 13.5864V25.4529" fill="#FEA439"/>
<path d="M62.1379 31.9217V56.2734C45.1886 56.2734 36.0023 66.1172 36.0023 66.1172V23.4302C36.0023 23.4302 45.1886 13.5864 62.1379 13.5864V25.4529" stroke="black" stroke-width="1.2" stroke-miterlimit="10" stroke-linecap="round" stroke-linejoin="round"/>
</g>
</svg>
