<svg width="37" height="36" viewBox="0 0 37 36" fill="none" xmlns="http://www.w3.org/2000/svg">
<path d="M22.3794 17.9672C24.1479 17.9672 25.5816 16.555 25.5816 14.8129C25.5816 13.0709 24.1479 11.6587 22.3794 11.6587C20.6109 11.6587 19.1772 13.0709 19.1772 14.8129C19.1772 16.555 20.6109 17.9672 22.3794 17.9672Z" fill="#FFD071"/>
<path d="M7.27661 32.0745C7.27661 32.0745 10.3679 34.3583 12.978 35.7747C13.2891 35.9424 13.6423 36.0193 13.9962 35.9965C14.3501 35.9736 14.6901 35.8518 14.9763 35.6455L15.3282 35.3928C15.424 35.3242 15.5046 35.2372 15.5654 35.1371C15.6262 35.037 15.6657 34.9258 15.6818 34.8102C15.6978 34.6947 15.6899 34.5771 15.6586 34.4646C15.6273 34.3522 15.5732 34.2471 15.4996 34.1557C14.3599 32.7357 13.4372 31.1591 12.7608 29.4761L7.27661 32.0745Z" fill="#3C4D68"/>
<path d="M7.47729 17.5064C7.47729 17.5064 11.2362 10.1828 14.2959 5.28682C14.392 5.13362 14.5245 5.00573 14.6819 4.91415C14.8394 4.82257 15.017 4.77006 15.1996 4.76113C15.3822 4.7522 15.5643 4.78713 15.7301 4.86289C15.896 4.93866 16.0407 5.053 16.1517 5.19607L30.3433 23.4593C30.4537 23.6011 30.5276 23.7669 30.559 23.9428C30.5904 24.1187 30.5783 24.2995 30.5238 24.4698C30.4692 24.6401 30.3737 24.795 30.2454 24.9212C30.1172 25.0475 29.9599 25.1414 29.787 25.1951C26.7991 26.1221 20.0202 28.0894 14.8678 28.5744C14.8678 28.5744 10.2768 27.0879 7.47729 17.5064Z" fill="#EAEAEA"/>
<path d="M0.0356183 26.9295C0.0982084 27.3824 0.228351 27.8236 0.421833 28.2389C0.837643 29.1548 1.91085 31.2054 3.51242 32.066C5.60583 33.1907 10.0464 32.2064 14.8673 28.5744C14.8673 28.5744 9.72851 23.0677 7.47685 17.5063C7.47685 17.5063 3.69593 20.2105 1.1617 23.1903C0.790663 23.6217 0.500324 24.1145 0.304198 24.6458C0.0338575 25.3757 -0.0581532 26.1581 0.0356183 26.9295Z" fill="#F47676"/>
<path d="M13.4478 6.67433L27.8944 25.7649C28.2535 25.6601 28.5906 25.5596 28.9032 25.4653L13.9976 5.76807C13.8159 6.06349 13.6327 6.36557 13.4478 6.67433Z" fill="white"/>
<path d="M3.6807 26.8806C3.57316 26.8808 3.46848 26.8464 3.38248 26.7828C3.29648 26.7192 3.23384 26.6298 3.20401 26.528C3.17418 26.4262 3.17878 26.3177 3.21713 26.2187C3.25548 26.1197 3.32549 26.0357 3.41658 25.9794L4.61485 25.2377C4.72604 25.1701 4.85983 25.1486 4.98708 25.1777C5.11434 25.2069 5.22475 25.2843 5.29428 25.3933C5.3638 25.5023 5.38681 25.6339 5.35828 25.7595C5.32975 25.8851 5.25201 25.9945 5.14197 26.0638L3.94371 26.8057C3.86499 26.8546 3.77379 26.8806 3.6807 26.8806Z" fill="white"/>
<path d="M4.58211 28.2944C4.47461 28.2945 4.36998 28.2602 4.28402 28.1966C4.19806 28.133 4.13545 28.0436 4.10562 27.9419C4.0758 27.8401 4.08039 27.7316 4.1187 27.6326C4.15701 27.5337 4.22696 27.4497 4.31799 27.3934L5.51614 26.6518C5.62733 26.5842 5.76112 26.5626 5.88837 26.5918C6.01563 26.6209 6.12604 26.6984 6.19557 26.8074C6.26509 26.9163 6.2881 27.0479 6.25957 27.1735C6.23104 27.2991 6.1533 27.4085 6.04326 27.4779L4.84512 28.2195C4.76642 28.2685 4.67521 28.2945 4.58211 28.2944Z" fill="white"/>
<path d="M5.48368 29.7067C5.37614 29.7069 5.27146 29.6726 5.18546 29.609C5.09946 29.5454 5.03681 29.456 5.00698 29.3542C4.97715 29.2524 4.98176 29.1438 5.02011 29.0449C5.05846 28.9459 5.12847 28.8619 5.21955 28.8056L6.41782 28.0639C6.52901 27.9963 6.6628 27.9747 6.79006 28.0039C6.91732 28.033 7.02773 28.1105 7.09726 28.2195C7.16678 28.3284 7.18978 28.46 7.16126 28.5856C7.13273 28.7112 7.05499 28.8206 6.94495 28.89L5.74718 29.6317C5.66833 29.6808 5.57695 29.7068 5.48368 29.7067Z" fill="white"/>
<path d="M24.0467 3.02388C23.9593 3.02382 23.8735 3.001 23.798 2.95774C23.7225 2.91448 23.66 2.85232 23.6167 2.77757C23.5735 2.70281 23.551 2.61812 23.5517 2.53208C23.5524 2.44604 23.5762 2.36171 23.6207 2.28765L24.8492 0.239716C24.916 0.128304 25.025 0.0476071 25.1523 0.015377C25.2795 -0.0168532 25.4145 0.00202371 25.5276 0.0678547C25.6407 0.133686 25.7226 0.241079 25.7554 0.366408C25.7881 0.491737 25.7689 0.624737 25.7021 0.736148L24.4736 2.78408C24.4298 2.85719 24.3673 2.91777 24.2925 2.95983C24.2176 3.00188 24.1329 3.02396 24.0467 3.02388Z" fill="#FFD071"/>
<path d="M34.1129 17.9362C33.9868 17.9363 33.8655 17.889 33.7735 17.8041C33.6816 17.7191 33.6261 17.6028 33.6182 17.4788C33.6103 17.3549 33.6506 17.2327 33.7311 17.1371C33.8115 17.0414 33.9259 16.9796 34.051 16.9642L36.4467 16.6655C36.5765 16.6504 36.7071 16.6864 36.81 16.7658C36.9129 16.8451 36.9798 16.9613 36.9962 17.089C37.0125 17.2167 36.9769 17.3456 36.8972 17.4476C36.8175 17.5496 36.7001 17.6165 36.5706 17.6336L34.1749 17.9323C34.1543 17.9349 34.1336 17.9362 34.1129 17.9362Z" fill="#FFD071"/>
<path d="M32.4898 8.10339C32.3878 8.10345 32.2882 8.0725 32.2048 8.01475C32.1213 7.957 32.058 7.87527 32.0234 7.78074C31.9889 7.6862 31.9848 7.58346 32.0117 7.48656C32.0387 7.38965 32.0954 7.30331 32.174 7.23932L34.036 5.72453C34.1373 5.64212 34.2676 5.60272 34.3984 5.61499C34.5292 5.62727 34.6497 5.69021 34.7333 5.78997C34.817 5.88974 34.857 6.01816 34.8445 6.14697C34.8321 6.27579 34.7682 6.39446 34.6669 6.47687L32.8049 7.99166C32.7163 8.06397 32.6048 8.10349 32.4898 8.10339Z" fill="#FFD071"/>
</svg>
