<svg width="147" height="125" viewBox="0 0 147 125" fill="none" xmlns="http://www.w3.org/2000/svg">
<path fill-rule="evenodd" clip-rule="evenodd" d="M101.022 35.0706C83.3936 27.0079 65.9426 6.7856 51.4644 21.7447C35.0908 38.6621 37.5612 68.7078 49.0142 88.1254C59.4136 105.757 81.2561 111.282 101.022 105.765C120.629 100.294 137.521 84.3716 138.187 63.1721C138.75 45.2293 116.22 42.022 101.022 35.0706Z" fill="#F1F4E7"/>
<path fill-rule="evenodd" clip-rule="evenodd" d="M86.2996 26.8045C67.0407 17.996 47.9754 -4.09694 32.1579 12.2459C14.2697 30.7283 16.9686 63.5533 29.481 84.7671C40.8425 104.029 64.7055 110.065 86.2996 104.039C107.721 98.0608 126.175 80.666 126.903 57.5055C127.518 37.903 102.904 34.3989 86.2996 26.8045Z" stroke="#FEA439" stroke-width="2"/>
</svg>
