<svg width="112" height="102" viewBox="0 0 112 102" fill="none" xmlns="http://www.w3.org/2000/svg">
<path fill-rule="evenodd" clip-rule="evenodd" d="M76.6625 32.3051C63.0304 26.0701 49.5354 10.4321 38.3393 22C25.6775 35.0824 27.5879 58.317 36.4445 73.3327C44.4865 86.9672 61.3775 91.2395 76.6625 86.9739C91.8249 82.7424 104.888 70.4298 105.403 54.0361C105.838 40.1609 88.4155 37.6806 76.6625 32.3051Z" fill="#C8EFEA"/>
<path fill-rule="evenodd" clip-rule="evenodd" d="M66.7363 20.7289C51.8433 13.9172 37.1 -3.16744 24.8682 9.47061C11.0351 23.7631 13.1222 49.147 22.7981 65.5517C31.584 80.4475 50.0375 85.115 66.7364 80.4547C83.3014 75.8319 97.5725 62.3804 98.1349 44.4702C98.611 29.3114 79.5766 26.6017 66.7363 20.7289Z" stroke="#30E1CB" stroke-width="2"/>
</svg>
