<svg width="22" height="22" viewBox="0 0 22 22" fill="none" xmlns="http://www.w3.org/2000/svg">
<path d="M8.43273 3.37693L15.5616 10.4846C15.6462 10.5692 15.7063 10.6609 15.7418 10.7596C15.7773 10.8583 15.7948 10.9641 15.7943 11.0769C15.7943 11.1898 15.7768 11.2955 15.7418 11.3942C15.7068 11.493 15.6468 11.5846 15.5616 11.6692L8.43273 18.7981C8.23529 18.9955 7.9885 19.0942 7.69234 19.0942C7.39619 19.0942 7.14234 18.9885 6.93081 18.7769C6.71927 18.5654 6.6135 18.3186 6.6135 18.0365C6.6135 17.7545 6.71927 17.5077 6.93081 17.2962L13.15 11.0769L6.9308 4.8577C6.73337 4.66026 6.63465 4.41685 6.63465 4.12747C6.63465 3.83809 6.74042 3.5879 6.95196 3.37693C7.1635 3.16539 7.41029 3.05962 7.69234 3.05962C7.97439 3.05962 8.22119 3.16539 8.43273 3.37693Z" fill="#19C1B6"/>
</svg>
